<svg xmlns="http://www.w3.org/2000/svg" viewBox="0 0 128 128"><defs><radialGradient id="b" cx="30%" cy="20%" r="100%"><stop offset="0" stop-color="#3b4fc4"/><stop offset="1" stop-color="#0d1238"/></radialGradient><radialGradient id="h" cx="50%" cy="50%" r="50%"><stop offset="0" stop-color="#7aa2ff" stop-opacity="0.18"/><stop offset="1" stop-color="#7aa2ff" stop-opacity="0"/></radialGradient><linearGradient id="f1" x1="0" y1="0" x2="0" y2="1"><stop offset="0" stop-color="#ff9b3d"/><stop offset="1" stop-color="#e85d0c"/></linearGradient></defs><rect width="128" height="128" fill="url(#b)"/><circle cx="64" cy="62" r="54" fill="url(#h)"/><ellipse cx="64" cy="114" rx="30" ry="5" fill="#000" opacity=".22"/><path d="M22 18 L30 66 L58 42 Z" fill="url(#f1)"/><path d="M106 18 L98 66 L70 42 Z" fill="url(#f1)"/><path d="M28 30 L34 58 L50 44 Z" fill="#ffe0c2"/><path d="M100 30 L94 58 L78 44 Z" fill="#ffe0c2"/><path d="M22 62 C22 40 106 40 106 62 C106 84 88 100 64 110 C40 100 22 84 22 62 Z" fill="url(#f1)"/><path d="M24 66 C36 72 48 78 56 88 Q64 83 72 88 C80 78 92 72 104 66 C100 88 84 102 64 110 C44 102 28 88 24 66 Z" fill="#fff4e8"/><path d="M38 64 Q47 54 57 63 Q48 70 38 64 Z" fill="#2a1408"/><path d="M90 64 Q81 54 71 63 Q80 70 90 64 Z" fill="#2a1408"/><circle cx="50" cy="61" r="1.9" fill="#fff"/><circle cx="78" cy="61" r="1.9" fill="#fff"/><path d="M57 93 Q64 89 71 93 Q67 100 64 101 Q61 100 57 93 Z" fill="#2a1408"/><path d="M64 101 V105" stroke="#2a1408" stroke-width="2" stroke-linecap="round"/></svg>